<mxfile host="app.diagrams.net" agent="Mozilla/5.0 (X11; Linux x86_64) AppleWebKit/537.36 (KHTML, like Gecko) Chrome/126.0.0.0 YaBrowser/24.7.0.0 Safari/537.36" version="24.7.17">
  <diagram name="Страница — 1" id="UjBPNbF5Juh3DCR17DNx">
    <mxGraphModel dx="2224" dy="791" grid="1" gridSize="10" guides="1" tooltips="1" connect="1" arrows="1" fold="1" page="1" pageScale="1" pageWidth="827" pageHeight="1169" math="0" shadow="0">
      <root>
        <mxCell id="0" />
        <mxCell id="1" parent="0" />
        <mxCell id="PQDEgTjOGFEBHPcHPmps-68" value="ic10 сокет" style="swimlane;whiteSpace=wrap;html=1;" vertex="1" parent="1">
          <mxGeometry x="-240" y="30" width="820" height="1000" as="geometry">
            <mxRectangle x="40" y="40" width="100" height="30" as="alternateBounds" />
          </mxGeometry>
        </mxCell>
        <mxCell id="PQDEgTjOGFEBHPcHPmps-101" value="Состаяния" style="swimlane;fontStyle=0;childLayout=stackLayout;horizontal=1;startSize=30;horizontalStack=0;resizeParent=1;resizeParentMax=0;resizeLast=0;collapsible=1;marginBottom=0;whiteSpace=wrap;html=1;" vertex="1" parent="PQDEgTjOGFEBHPcHPmps-68">
          <mxGeometry x="20.00000000000002" y="40" width="140" height="120" as="geometry" />
        </mxCell>
        <mxCell id="PQDEgTjOGFEBHPcHPmps-102" value="Error (bolean)" style="text;strokeColor=none;fillColor=none;align=left;verticalAlign=middle;spacingLeft=4;spacingRight=4;overflow=hidden;points=[[0,0.5],[1,0.5]];portConstraint=eastwest;rotatable=0;whiteSpace=wrap;html=1;" vertex="1" parent="PQDEgTjOGFEBHPcHPmps-101">
          <mxGeometry y="30" width="140" height="30" as="geometry" />
        </mxCell>
        <mxCell id="PQDEgTjOGFEBHPcHPmps-103" value="On (boolean)" style="text;strokeColor=none;fillColor=none;align=left;verticalAlign=middle;spacingLeft=4;spacingRight=4;overflow=hidden;points=[[0,0.5],[1,0.5]];portConstraint=eastwest;rotatable=0;whiteSpace=wrap;html=1;" vertex="1" parent="PQDEgTjOGFEBHPcHPmps-101">
          <mxGeometry y="60" width="140" height="30" as="geometry" />
        </mxCell>
        <mxCell id="PQDEgTjOGFEBHPcHPmps-104" value="State (Float)" style="text;strokeColor=none;fillColor=none;align=left;verticalAlign=middle;spacingLeft=4;spacingRight=4;overflow=hidden;points=[[0,0.5],[1,0.5]];portConstraint=eastwest;rotatable=0;whiteSpace=wrap;html=1;" vertex="1" parent="PQDEgTjOGFEBHPcHPmps-101">
          <mxGeometry y="90" width="140" height="30" as="geometry" />
        </mxCell>
        <mxCell id="PQDEgTjOGFEBHPcHPmps-110" value="Редактирование&amp;nbsp; кода" style="swimlane;horizontal=0;whiteSpace=wrap;html=1;" vertex="1" parent="PQDEgTjOGFEBHPcHPmps-68">
          <mxGeometry x="240" y="40" width="450" height="390" as="geometry" />
        </mxCell>
        <mxCell id="PQDEgTjOGFEBHPcHPmps-111" value="" style="edgeStyle=orthogonalEdgeStyle;rounded=0;orthogonalLoop=1;jettySize=auto;html=1;" edge="1" parent="PQDEgTjOGFEBHPcHPmps-110" source="PQDEgTjOGFEBHPcHPmps-112" target="PQDEgTjOGFEBHPcHPmps-114">
          <mxGeometry relative="1" as="geometry" />
        </mxCell>
        <mxCell id="PQDEgTjOGFEBHPcHPmps-112" value="Код ic10" style="shape=parallelogram;perimeter=parallelogramPerimeter;whiteSpace=wrap;html=1;fixedSize=1;" vertex="1" parent="PQDEgTjOGFEBHPcHPmps-110">
          <mxGeometry x="171.99999999999994" y="20" width="120" height="60" as="geometry" />
        </mxCell>
        <mxCell id="PQDEgTjOGFEBHPcHPmps-113" value="" style="edgeStyle=orthogonalEdgeStyle;rounded=0;orthogonalLoop=1;jettySize=auto;html=1;" edge="1" parent="PQDEgTjOGFEBHPcHPmps-110" source="PQDEgTjOGFEBHPcHPmps-114" target="PQDEgTjOGFEBHPcHPmps-119">
          <mxGeometry relative="1" as="geometry" />
        </mxCell>
        <mxCell id="PQDEgTjOGFEBHPcHPmps-114" value="Семантический анализ" style="shape=process;whiteSpace=wrap;html=1;backgroundOutline=1;" vertex="1" parent="PQDEgTjOGFEBHPcHPmps-110">
          <mxGeometry x="171.99999999999997" y="120" width="120" height="60" as="geometry" />
        </mxCell>
        <mxCell id="PQDEgTjOGFEBHPcHPmps-115" value="" style="edgeStyle=orthogonalEdgeStyle;rounded=0;orthogonalLoop=1;jettySize=auto;html=1;" edge="1" parent="PQDEgTjOGFEBHPcHPmps-110" source="PQDEgTjOGFEBHPcHPmps-119" target="PQDEgTjOGFEBHPcHPmps-120">
          <mxGeometry relative="1" as="geometry" />
        </mxCell>
        <mxCell id="PQDEgTjOGFEBHPcHPmps-116" value="ДА" style="edgeLabel;html=1;align=center;verticalAlign=middle;resizable=0;points=[];" vertex="1" connectable="0" parent="PQDEgTjOGFEBHPcHPmps-115">
          <mxGeometry x="-0.1588" y="1" relative="1" as="geometry">
            <mxPoint as="offset" />
          </mxGeometry>
        </mxCell>
        <mxCell id="PQDEgTjOGFEBHPcHPmps-124" style="edgeStyle=orthogonalEdgeStyle;rounded=0;orthogonalLoop=1;jettySize=auto;html=1;entryX=0.5;entryY=0;entryDx=0;entryDy=0;" edge="1" parent="PQDEgTjOGFEBHPcHPmps-110" source="PQDEgTjOGFEBHPcHPmps-119" target="PQDEgTjOGFEBHPcHPmps-121">
          <mxGeometry relative="1" as="geometry" />
        </mxCell>
        <mxCell id="PQDEgTjOGFEBHPcHPmps-126" value="Нет" style="edgeLabel;html=1;align=center;verticalAlign=middle;resizable=0;points=[];" vertex="1" connectable="0" parent="PQDEgTjOGFEBHPcHPmps-124">
          <mxGeometry x="-0.0153" relative="1" as="geometry">
            <mxPoint as="offset" />
          </mxGeometry>
        </mxCell>
        <mxCell id="PQDEgTjOGFEBHPcHPmps-119" value="Есть ошибки?" style="rhombus;whiteSpace=wrap;html=1;" vertex="1" parent="PQDEgTjOGFEBHPcHPmps-110">
          <mxGeometry x="163.99999999999997" y="210" width="136" height="80" as="geometry" />
        </mxCell>
        <mxCell id="PQDEgTjOGFEBHPcHPmps-120" value="выброс исключения" style="triangle;whiteSpace=wrap;html=1;" vertex="1" parent="PQDEgTjOGFEBHPcHPmps-110">
          <mxGeometry x="40.00000000000001" y="210" width="60" height="80" as="geometry" />
        </mxCell>
        <mxCell id="PQDEgTjOGFEBHPcHPmps-121" value="Разбиваем на строки" style="shape=process;whiteSpace=wrap;html=1;backgroundOutline=1;" vertex="1" parent="PQDEgTjOGFEBHPcHPmps-110">
          <mxGeometry x="320.00000000000006" y="270" width="120" height="60" as="geometry" />
        </mxCell>
        <mxCell id="PQDEgTjOGFEBHPcHPmps-127" value="Испонение кода" style="swimlane;horizontal=0;whiteSpace=wrap;html=1;" vertex="1" parent="PQDEgTjOGFEBHPcHPmps-68">
          <mxGeometry x="240" y="475" width="450" height="465" as="geometry" />
        </mxCell>
        <mxCell id="PQDEgTjOGFEBHPcHPmps-129" value="Строчки кода" style="shape=parallelogram;perimeter=parallelogramPerimeter;whiteSpace=wrap;html=1;fixedSize=1;" vertex="1" parent="PQDEgTjOGFEBHPcHPmps-127">
          <mxGeometry x="320" y="20" width="120" height="60" as="geometry" />
        </mxCell>
        <mxCell id="PQDEgTjOGFEBHPcHPmps-105" value="Chip" style="swimlane;whiteSpace=wrap;html=1;" vertex="1" parent="1">
          <mxGeometry x="610" y="460" width="400" height="230" as="geometry" />
        </mxCell>
        <mxCell id="PQDEgTjOGFEBHPcHPmps-96" value="" style="shape=cylinder3;whiteSpace=wrap;html=1;boundedLbl=1;backgroundOutline=1;size=15;" vertex="1" parent="PQDEgTjOGFEBHPcHPmps-105">
          <mxGeometry x="310" y="40" width="60" height="80" as="geometry" />
        </mxCell>
        <mxCell id="PQDEgTjOGFEBHPcHPmps-106" value="List" style="swimlane;fontStyle=0;childLayout=stackLayout;horizontal=1;startSize=30;horizontalStack=0;resizeParent=1;resizeParentMax=0;resizeLast=0;collapsible=1;marginBottom=0;whiteSpace=wrap;html=1;" vertex="1" parent="PQDEgTjOGFEBHPcHPmps-105">
          <mxGeometry x="10" y="40" width="140" height="120" as="geometry" />
        </mxCell>
        <mxCell id="PQDEgTjOGFEBHPcHPmps-107" value="Хранилище кода" style="text;strokeColor=none;fillColor=none;align=left;verticalAlign=middle;spacingLeft=4;spacingRight=4;overflow=hidden;points=[[0,0.5],[1,0.5]];portConstraint=eastwest;rotatable=0;whiteSpace=wrap;html=1;" vertex="1" parent="PQDEgTjOGFEBHPcHPmps-106">
          <mxGeometry y="30" width="140" height="30" as="geometry" />
        </mxCell>
        <mxCell id="PQDEgTjOGFEBHPcHPmps-108" value="Item 2" style="text;strokeColor=none;fillColor=none;align=left;verticalAlign=middle;spacingLeft=4;spacingRight=4;overflow=hidden;points=[[0,0.5],[1,0.5]];portConstraint=eastwest;rotatable=0;whiteSpace=wrap;html=1;" vertex="1" parent="PQDEgTjOGFEBHPcHPmps-106">
          <mxGeometry y="60" width="140" height="30" as="geometry" />
        </mxCell>
        <mxCell id="PQDEgTjOGFEBHPcHPmps-109" value="Item 3" style="text;strokeColor=none;fillColor=none;align=left;verticalAlign=middle;spacingLeft=4;spacingRight=4;overflow=hidden;points=[[0,0.5],[1,0.5]];portConstraint=eastwest;rotatable=0;whiteSpace=wrap;html=1;" vertex="1" parent="PQDEgTjOGFEBHPcHPmps-106">
          <mxGeometry y="90" width="140" height="30" as="geometry" />
        </mxCell>
        <mxCell id="PQDEgTjOGFEBHPcHPmps-122" value="" style="edgeStyle=orthogonalEdgeStyle;rounded=0;orthogonalLoop=1;jettySize=auto;html=1;entryX=0.5;entryY=0;entryDx=0;entryDy=0;entryPerimeter=0;" edge="1" parent="1" source="PQDEgTjOGFEBHPcHPmps-121" target="PQDEgTjOGFEBHPcHPmps-96">
          <mxGeometry relative="1" as="geometry">
            <mxPoint x="920" y="1020" as="targetPoint" />
          </mxGeometry>
        </mxCell>
        <mxCell id="PQDEgTjOGFEBHPcHPmps-123" value="Запись на Чип" style="edgeLabel;html=1;align=center;verticalAlign=middle;resizable=0;points=[];" vertex="1" connectable="0" parent="PQDEgTjOGFEBHPcHPmps-122">
          <mxGeometry x="-0.2345" y="1" relative="1" as="geometry">
            <mxPoint as="offset" />
          </mxGeometry>
        </mxCell>
        <mxCell id="PQDEgTjOGFEBHPcHPmps-128" style="edgeStyle=orthogonalEdgeStyle;rounded=0;orthogonalLoop=1;jettySize=auto;html=1;entryX=1;entryY=0.5;entryDx=0;entryDy=0;" edge="1" parent="1" source="PQDEgTjOGFEBHPcHPmps-96" target="PQDEgTjOGFEBHPcHPmps-129">
          <mxGeometry relative="1" as="geometry">
            <mxPoint x="950" y="780" as="targetPoint" />
            <Array as="points">
              <mxPoint x="950" y="780" />
            </Array>
          </mxGeometry>
        </mxCell>
        <mxCell id="PQDEgTjOGFEBHPcHPmps-130" value="Чтение из чипа" style="edgeLabel;html=1;align=center;verticalAlign=middle;resizable=0;points=[];" vertex="1" connectable="0" parent="PQDEgTjOGFEBHPcHPmps-128">
          <mxGeometry x="0.1407" y="2" relative="1" as="geometry">
            <mxPoint x="79" as="offset" />
          </mxGeometry>
        </mxCell>
      </root>
    </mxGraphModel>
  </diagram>
</mxfile>
